<svg width="364" height="420" viewBox="0 0 364 420" fill="none" xmlns="http://www.w3.org/2000/svg">
    <path d="M38 381.826V38.1738H326V381.826H38Z" stroke="#B7006E" stroke-width="2.40061" stroke-linejoin="round"/>
    <path d="M20 399.028V20.0874H344V399.028H20Z" stroke="#D5FF64" stroke-width="2.40061" stroke-linejoin="round"/>
    <path d="M2 418V2H362V418H2Z" stroke="#B7006E" stroke-width="2.40061" stroke-linejoin="round"/>
    <path d="M146 56.2612V55.0609C145.337 55.0609 144.8 55.5983 144.8 56.2612H146ZM146 146.696H144.8C144.8 147.359 145.337 147.896 146 147.896V146.696ZM218 146.696V147.896C218.663 147.896 219.2 147.359 219.2 146.696H218ZM218 56.2612H219.2C219.2 55.5983 218.663 55.0609 218 55.0609V56.2612ZM164 74.3482V73.1479C163.337 73.1479 162.8 73.6853 162.8 74.3482H164ZM200 74.3482H201.2C201.2 73.6853 200.663 73.1479 200 73.1479V74.3482ZM200 128.609V129.809C200.663 129.809 201.2 129.272 201.2 128.609H200ZM164 128.609H162.8C162.8 129.272 163.337 129.809 164 129.809V128.609ZM74 56.2612H75.2003C75.2003 55.5983 74.6629 55.0609 74 55.0609V56.2612ZM74 110.522H72.7997C72.7997 111.185 73.3371 111.722 74 111.722V110.522ZM92 110.522V111.722C92.6629 111.722 93.2003 111.185 93.2003 110.522H92ZM92 56.2612V55.0609C91.3371 55.0609 90.7997 55.5983 90.7997 56.2612H92ZM110 56.2612H111.2C111.2 55.5983 110.663 55.0609 110 55.0609V56.2612ZM110 110.522H108.8C108.8 111.185 109.337 111.722 110 111.722V110.522ZM128 110.522H129.2C129.2 109.859 128.663 109.322 128 109.322V110.522ZM128 128.609V129.809C128.663 129.809 129.2 129.272 129.2 128.609H128ZM110 128.609V127.409C109.337 127.409 108.8 127.946 108.8 128.609H110ZM110 146.696V147.896C110.663 147.896 111.2 147.359 111.2 146.696H110ZM92 146.696H90.7997C90.7997 147.359 91.3371 147.896 92 147.896V146.696ZM92 128.609H93.2003C93.2003 127.946 92.6629 127.409 92 127.409V128.609ZM56 128.609H54.7997C54.7997 129.272 55.3371 129.809 56 129.809V128.609ZM254 56.2612H255.2C255.2 55.5983 254.663 55.0609 254 55.0609V56.2612ZM254 110.522H252.8C252.8 111.185 253.337 111.722 254 111.722V110.522ZM272 110.522V111.722C272.663 111.722 273.2 111.185 273.2 110.522H272ZM272 56.2612V55.0609C271.337 55.0609 270.8 55.5983 270.8 56.2612H272ZM290 56.2612H291.2C291.2 55.5983 290.663 55.0609 290 55.0609V56.2612ZM290 110.522H288.8C288.8 111.185 289.337 111.722 290 111.722V110.522ZM308 110.522H309.2C309.2 109.859 308.663 109.322 308 109.322V110.522ZM308 128.609V129.809C308.663 129.809 309.2 129.272 309.2 128.609H308ZM290 128.609V127.409C289.337 127.409 288.8 127.946 288.8 128.609H290ZM290 146.696V147.896C290.663 147.896 291.2 147.359 291.2 146.696H290ZM272 146.696H270.8C270.8 147.359 271.337 147.896 272 147.896V146.696ZM272 128.609H273.2C273.2 127.946 272.663 127.409 272 127.409V128.609ZM236 128.609H234.8C234.8 129.272 235.337 129.809 236 129.809V128.609ZM144.8 56.2612V146.696H147.2V56.2612H144.8ZM146 147.896H218V145.496H146V147.896ZM219.2 146.696V56.2612H216.8V146.696H219.2ZM218 55.0609H146V57.4615H218V55.0609ZM164 75.5485H200V73.1479H164V75.5485ZM198.8 74.3482V128.609H201.2V74.3482H198.8ZM200 127.409H164V129.809H200V127.409ZM165.2 128.609V74.3482H162.8V128.609H165.2ZM56 57.4615H74V55.0609H56V57.4615ZM72.7997 56.2612V110.522H75.2003V56.2612H72.7997ZM74 111.722H92V109.322H74V111.722ZM93.2003 110.522V56.2612H90.7997V110.522H93.2003ZM92 57.4615H110V55.0609H92V57.4615ZM108.8 56.2612V110.522H111.2V56.2612H108.8ZM110 111.722H128V109.322H110V111.722ZM126.8 110.522V128.609H129.2V110.522H126.8ZM128 127.409H110V129.809H128V127.409ZM108.8 128.609V146.696H111.2V128.609H108.8ZM110 145.496H92V147.896H110V145.496ZM93.2003 146.696V128.609H90.7997V146.696H93.2003ZM92 127.409H56V129.809H92V127.409ZM57.2003 128.609V56.2612H54.7997V128.609H57.2003ZM57.2003 56.2612V55.7622H54.7997V56.2612H57.2003ZM236 57.4615H254V55.0609H236V57.4615ZM252.8 56.2612V110.522H255.2V56.2612H252.8ZM254 111.722H272V109.322H254V111.722ZM273.2 110.522V56.2612H270.8V110.522H273.2ZM272 57.4615H290V55.0609H272V57.4615ZM288.8 56.2612V110.522H291.2V56.2612H288.8ZM290 111.722H308V109.322H290V111.722ZM306.8 110.522V128.609H309.2V110.522H306.8ZM308 127.409H290V129.809H308V127.409ZM288.8 128.609V146.696H291.2V128.609H288.8ZM290 145.496H272V147.896H290V145.496ZM273.2 146.696V128.609H270.8V146.696H273.2ZM272 127.409H236V129.809H272V127.409ZM237.2 128.609V56.2612H234.8V128.609H237.2ZM237.2 56.2612V55.7622H234.8V56.2612H237.2Z" fill="#D5FF64"/>
    <path d="M146.23 274.302V273.102C145.568 273.102 145.03 273.639 145.03 274.302H146.23ZM146.23 364.737H145.03C145.03 365.4 145.568 365.937 146.23 365.937V364.737ZM218.23 364.737V365.937C218.893 365.937 219.431 365.4 219.431 364.737H218.23ZM218.23 274.302H219.431C219.431 273.639 218.893 273.102 218.23 273.102V274.302ZM164.23 292.389V291.189C163.568 291.189 163.03 291.726 163.03 292.389H164.23ZM200.23 292.389H201.431C201.431 291.726 200.893 291.189 200.23 291.189V292.389ZM200.23 346.65V347.85C200.893 347.85 201.431 347.313 201.431 346.65H200.23ZM164.23 346.65H163.03C163.03 347.313 163.568 347.85 164.23 347.85V346.65ZM74.2305 274.302H75.4308C75.4308 273.639 74.8934 273.102 74.2305 273.102V274.302ZM74.2305 328.563H73.0302C73.0302 329.226 73.5676 329.763 74.2305 329.763V328.563ZM92.2305 328.563V329.763C92.8934 329.763 93.4308 329.226 93.4308 328.563H92.2305ZM92.2305 274.302V273.102C91.5676 273.102 91.0302 273.639 91.0302 274.302H92.2305ZM110.23 274.302H111.431C111.431 273.639 110.893 273.102 110.23 273.102V274.302ZM110.23 328.563H109.03C109.03 329.226 109.568 329.763 110.23 329.763V328.563ZM128.23 328.563H129.431C129.431 327.9 128.893 327.363 128.23 327.363V328.563ZM128.23 346.65V347.85C128.893 347.85 129.431 347.313 129.431 346.65H128.23ZM110.23 346.65V345.45C109.568 345.45 109.03 345.987 109.03 346.65H110.23ZM110.23 364.737V365.937C110.893 365.937 111.431 365.4 111.431 364.737H110.23ZM92.2305 364.737H91.0302C91.0302 365.4 91.5676 365.937 92.2305 365.937V364.737ZM92.2305 346.65H93.4308C93.4308 345.987 92.8934 345.45 92.2305 345.45V346.65ZM56.2305 346.65H55.0302C55.0302 347.313 55.5676 347.85 56.2305 347.85V346.65ZM254.23 274.302H255.431C255.431 273.639 254.893 273.102 254.23 273.102V274.302ZM254.23 328.563H253.03C253.03 329.226 253.568 329.763 254.23 329.763V328.563ZM272.23 328.563V329.763C272.893 329.763 273.431 329.226 273.431 328.563H272.23ZM272.23 274.302V273.102C271.568 273.102 271.03 273.639 271.03 274.302H272.23ZM290.23 274.302H291.431C291.431 273.639 290.893 273.102 290.23 273.102V274.302ZM290.23 328.563H289.03C289.03 329.226 289.568 329.763 290.23 329.763V328.563ZM308.23 328.563H309.431C309.431 327.9 308.893 327.363 308.23 327.363V328.563ZM308.23 346.65V347.85C308.893 347.85 309.431 347.313 309.431 346.65H308.23ZM290.23 346.65V345.45C289.568 345.45 289.03 345.987 289.03 346.65H290.23ZM290.23 364.737V365.937C290.893 365.937 291.431 365.4 291.431 364.737H290.23ZM272.23 364.737H271.03C271.03 365.4 271.568 365.937 272.23 365.937V364.737ZM272.23 346.65H273.431C273.431 345.987 272.893 345.45 272.23 345.45V346.65ZM236.23 346.65H235.03C235.03 347.313 235.568 347.85 236.23 347.85V346.65ZM145.03 274.302V364.737H147.431V274.302H145.03ZM146.23 365.937H218.23V363.537H146.23V365.937ZM219.431 364.737V274.302H217.03V364.737H219.431ZM218.23 273.102H146.23V275.503H218.23V273.102ZM164.23 293.589H200.23V291.189H164.23V293.589ZM199.03 292.389V346.65H201.431V292.389H199.03ZM200.23 345.45H164.23V347.85H200.23V345.45ZM165.431 346.65V292.389H163.03V346.65H165.431ZM56.2305 275.503H74.2305V273.102H56.2305V275.503ZM73.0302 274.302V328.563H75.4308V274.302H73.0302ZM74.2305 329.763H92.2305V327.363H74.2305V329.763ZM93.4308 328.563V274.302H91.0302V328.563H93.4308ZM92.2305 275.503H110.23V273.102H92.2305V275.503ZM109.03 274.302V328.563H111.431V274.302H109.03ZM110.23 329.763H128.23V327.363H110.23V329.763ZM127.03 328.563V346.65H129.431V328.563H127.03ZM128.23 345.45H110.23V347.85H128.23V345.45ZM109.03 346.65V364.737H111.431V346.65H109.03ZM110.23 363.537H92.2305V365.937H110.23V363.537ZM93.4308 364.737V346.65H91.0302V364.737H93.4308ZM92.2305 345.45H56.2305V347.85H92.2305V345.45ZM57.4308 346.65V274.302H55.0302V346.65H57.4308ZM57.4308 274.302V273.803H55.0302V274.302H57.4308ZM236.23 275.503H254.23V273.102H236.23V275.503ZM253.03 274.302V328.563H255.431V274.302H253.03ZM254.23 329.763H272.23V327.363H254.23V329.763ZM273.431 328.563V274.302H271.03V328.563H273.431ZM272.23 275.503H290.23V273.102H272.23V275.503ZM289.03 274.302V328.563H291.431V274.302H289.03ZM290.23 329.763H308.23V327.363H290.23V329.763ZM307.03 328.563V346.65H309.431V328.563H307.03ZM308.23 345.45H290.23V347.85H308.23V345.45ZM289.03 346.65V364.737H291.431V346.65H289.03ZM290.23 363.537H272.23V365.937H290.23V363.537ZM273.431 364.737V346.65H271.03V364.737H273.431ZM272.23 345.45H236.23V347.85H272.23V345.45ZM237.431 346.65V274.302H235.03V346.65H237.431ZM237.431 274.302V273.803H235.03V274.302H237.431Z" fill="#D5FF64"/>
    <path d="M218.23 165.282V164.081C218.893 164.081 219.431 164.619 219.431 165.282H218.23ZM218.23 255.717H219.431C219.431 256.379 218.893 256.917 218.23 256.917V255.717ZM146.23 255.717V256.917C145.568 256.917 145.03 256.379 145.03 255.717H146.23ZM146.23 165.282H145.03C145.03 164.619 145.568 164.081 146.23 164.081V165.282ZM200.23 183.369V182.168C200.893 182.168 201.431 182.706 201.431 183.369H200.23ZM164.23 183.369H163.03C163.03 182.706 163.568 182.168 164.23 182.168V183.369ZM164.23 237.63V238.83C163.568 238.83 163.03 238.292 163.03 237.63H164.23ZM200.23 237.63H201.431C201.431 238.292 200.893 238.83 200.23 238.83V237.63ZM290.23 165.282H289.03C289.03 164.619 289.568 164.081 290.23 164.081V165.282ZM290.23 219.543H291.431C291.431 220.206 290.893 220.743 290.23 220.743V219.543ZM272.23 219.543V220.743C271.568 220.743 271.03 220.206 271.03 219.543H272.23ZM272.23 165.282V164.081C272.893 164.081 273.431 164.619 273.431 165.282H272.23ZM254.23 165.282H253.03C253.03 164.619 253.568 164.081 254.23 164.081V165.282ZM254.23 219.543H255.431C255.431 220.206 254.893 220.743 254.23 220.743V219.543ZM236.23 219.543H235.03C235.03 218.88 235.568 218.342 236.23 218.342V219.543ZM236.23 237.63V238.83C235.568 238.83 235.03 238.292 235.03 237.63H236.23ZM254.23 237.63V236.429C254.893 236.429 255.431 236.967 255.431 237.63H254.23ZM254.23 255.717V256.917C253.568 256.917 253.03 256.379 253.03 255.717H254.23ZM272.23 255.717H273.431C273.431 256.379 272.893 256.917 272.23 256.917V255.717ZM272.23 237.63H271.03C271.03 236.967 271.568 236.429 272.23 236.429V237.63ZM308.23 237.63H309.431C309.431 238.292 308.893 238.83 308.23 238.83V237.63ZM110.23 165.282H109.03C109.03 164.619 109.568 164.081 110.23 164.081V165.282ZM110.23 219.543H111.431C111.431 220.206 110.893 220.743 110.23 220.743V219.543ZM92.2305 219.543V220.743C91.5676 220.743 91.0302 220.206 91.0302 219.543H92.2305ZM92.2305 165.282V164.081C92.8934 164.081 93.4308 164.619 93.4308 165.282H92.2305ZM74.2305 165.282H73.0302C73.0302 164.619 73.5676 164.081 74.2305 164.081V165.282ZM74.2305 219.543H75.4308C75.4308 220.206 74.8934 220.743 74.2305 220.743V219.543ZM56.2305 219.543H55.0302C55.0302 218.88 55.5676 218.342 56.2305 218.342V219.543ZM56.2305 237.63V238.83C55.5676 238.83 55.0302 238.292 55.0302 237.63H56.2305ZM74.2305 237.63V236.429C74.8934 236.429 75.4308 236.967 75.4308 237.63H74.2305ZM74.2305 255.717V256.917C73.5676 256.917 73.0302 256.379 73.0302 255.717H74.2305ZM92.2305 255.717H93.4308C93.4308 256.379 92.8934 256.917 92.2305 256.917V255.717ZM92.2305 237.63H91.0302C91.0302 236.967 91.5676 236.429 92.2305 236.429V237.63ZM128.23 237.63H129.431C129.431 238.292 128.893 238.83 128.23 238.83V237.63ZM219.431 165.282V255.717H217.03V165.282H219.431ZM218.23 256.917H146.23V254.516H218.23V256.917ZM145.03 255.717V165.282H147.431V255.717H145.03ZM146.23 164.081H218.23V166.482H146.23V164.081ZM200.23 184.569H164.23V182.168H200.23V184.569ZM165.431 183.369V237.63H163.03V183.369H165.431ZM164.23 236.429H200.23V238.83H164.23V236.429ZM199.03 237.63V183.369H201.431V237.63H199.03ZM308.23 166.482H290.23V164.081H308.23V166.482ZM291.431 165.282V219.543H289.03V165.282H291.431ZM290.23 220.743H272.23V218.342H290.23V220.743ZM271.03 219.543V165.282H273.431V219.543H271.03ZM272.23 166.482H254.23V164.081H272.23V166.482ZM255.431 165.282V219.543H253.03V165.282H255.431ZM254.23 220.743H236.23V218.342H254.23V220.743ZM237.431 219.543V237.63H235.03V219.543H237.431ZM236.23 236.429H254.23V238.83H236.23V236.429ZM255.431 237.63V255.717H253.03V237.63H255.431ZM254.23 254.516H272.23V256.917H254.23V254.516ZM271.03 255.717V237.63H273.431V255.717H271.03ZM272.23 236.429H308.23V238.83H272.23V236.429ZM307.03 237.63V165.282H309.431V237.63H307.03ZM307.03 165.282V164.783H309.431V165.282H307.03ZM128.23 166.482H110.23V164.081H128.23V166.482ZM111.431 165.282V219.543H109.03V165.282H111.431ZM110.23 220.743H92.2305V218.342H110.23V220.743ZM91.0302 219.543V165.282H93.4308V219.543H91.0302ZM92.2305 166.482H74.2305V164.081H92.2305V166.482ZM75.4308 165.282V219.543H73.0302V165.282H75.4308ZM74.2305 220.743H56.2305V218.342H74.2305V220.743ZM57.4308 219.543V237.63H55.0302V219.543H57.4308ZM56.2305 236.429H74.2305V238.83H56.2305V236.429ZM75.4308 237.63V255.717H73.0302V237.63H75.4308ZM74.2305 254.516H92.2305V256.917H74.2305V254.516ZM91.0302 255.717V237.63H93.4308V255.717H91.0302ZM92.2305 236.429H128.23V238.83H92.2305V236.429ZM127.03 237.63V165.282H129.431V237.63H127.03ZM127.03 165.282V164.783H129.431V165.282H127.03Z" fill="#B7006E"/>
</svg>
