<svg width="2614" height="1078" viewBox="0 0 2614 1078" fill="none" xmlns="http://www.w3.org/2000/svg">
<path fill-rule="evenodd" clip-rule="evenodd" d="M1084.92 429.07H1065.84C1059.56 429.07 1053.54 431.564 1049.1 436.002C1044.66 440.441 1042.16 446.461 1042.16 452.74V491.11C1042.16 497.39 1039.67 503.413 1035.22 507.854C1030.78 512.295 1024.76 514.79 1018.48 514.79H902.25C899.14 514.79 896.061 514.178 893.188 512.987C890.315 511.797 887.705 510.053 885.506 507.854C883.307 505.655 881.563 503.045 880.373 500.172C879.183 497.299 878.57 494.22 878.57 491.11V452.74C878.567 446.461 876.071 440.441 871.631 436.002C867.19 431.564 861.169 429.07 854.89 429.07H642.89C636.61 429.07 630.587 426.575 626.146 422.134C621.705 417.693 619.21 411.67 619.21 405.39V329.29C619.211 324.484 620.677 319.793 623.41 315.84L824.36 25C826.539 21.8468 829.451 19.2696 832.846 17.4895C836.241 15.7094 840.017 14.7796 843.85 14.78H960.12C964.404 14.78 968.607 15.9418 972.282 18.1418C975.958 20.3418 978.967 23.4976 980.991 27.2729C983.015 31.0483 983.976 35.3018 983.774 39.5805C983.571 43.8592 982.211 48.0029 979.84 51.57L840.17 261.57C838.124 264.647 836.827 268.161 836.382 271.829C835.937 275.498 836.357 279.219 837.608 282.696C838.859 286.173 840.907 289.31 843.587 291.854C846.267 294.398 849.505 296.279 853.042 297.348C856.58 298.417 860.318 298.642 863.959 298.008C867.599 297.373 871.04 295.895 874.007 293.692C876.974 291.489 879.384 288.622 881.045 285.321C882.705 282.019 883.57 278.375 883.57 274.68V245.57C883.573 239.291 886.069 233.271 890.509 228.832C894.95 224.393 900.971 221.9 907.25 221.9H1018.48C1024.76 221.9 1030.78 224.393 1035.22 228.832C1039.66 233.271 1042.16 239.291 1042.16 245.57V274.65C1042.16 280.93 1044.65 286.953 1049.1 291.394C1053.54 295.835 1059.56 298.33 1065.84 298.33H1084.92C1091.2 298.33 1097.22 300.823 1101.66 305.262C1106.1 309.701 1108.6 315.721 1108.6 322V405.38C1108.6 408.491 1107.99 411.571 1106.8 414.445C1105.61 417.319 1103.87 419.931 1101.67 422.131C1099.47 424.331 1096.86 426.076 1093.98 427.267C1091.11 428.457 1088.03 429.07 1084.92 429.07Z" fill="#EFF0F7"/>
<path fill-rule="evenodd" clip-rule="evenodd" d="M1241.11 495.14C1207.05 474.427 1180.38 444.427 1161.11 405.14C1141.84 365.853 1132.19 319.063 1132.18 264.77C1132.18 210.47 1141.82 163.677 1161.11 124.39C1180.4 85.1033 1207.06 55.1034 1241.11 34.39C1275.15 13.67 1314.32 3.31334 1358.63 3.32001C1402.94 3.32668 1442.1 13.6834 1476.13 34.39C1510.18 55.11 1536.84 85.11 1556.13 124.39C1575.42 163.67 1585.06 210.463 1585.06 264.77C1585.06 319.057 1575.42 365.847 1556.13 405.14C1536.84 444.433 1510.18 474.433 1476.13 495.14C1442.08 515.86 1402.91 526.22 1358.63 526.22C1314.35 526.22 1275.18 515.86 1241.11 495.14ZM1415.77 264.76C1415.77 180.46 1396.72 138.313 1358.63 138.32C1320.54 138.327 1301.48 180.473 1301.47 264.76C1301.47 349.047 1320.52 391.193 1358.63 391.2C1396.74 391.207 1415.78 349.06 1415.77 264.76Z" fill="#EFF0F7"/>
<path fill-rule="evenodd" clip-rule="evenodd" d="M2087.88 429.07H2068.8C2062.52 429.07 2056.5 431.564 2052.06 436.002C2047.62 440.441 2045.12 446.461 2045.12 452.74V491.11C2045.12 497.39 2042.63 503.413 2038.18 507.854C2033.74 512.295 2027.72 514.79 2021.44 514.79H1905.21C1898.93 514.79 1892.91 512.295 1888.47 507.854C1884.02 503.413 1881.53 497.39 1881.53 491.11V452.74C1881.53 446.461 1879.03 440.441 1874.59 436.002C1870.15 431.564 1864.13 429.07 1857.85 429.07H1645.9C1639.62 429.07 1633.6 426.575 1629.16 422.134C1624.71 417.693 1622.22 411.67 1622.22 405.39V329.29C1622.22 324.485 1623.68 319.794 1626.41 315.84L1827.32 25C1829.5 21.8474 1832.41 19.2706 1835.81 17.4906C1839.2 15.7106 1842.98 14.7805 1846.81 14.78H1963.08C1967.36 14.78 1971.57 15.9418 1975.24 18.1418C1978.92 20.3418 1981.93 23.4976 1983.95 27.2729C1985.97 31.0483 1986.94 35.3018 1986.73 39.5805C1986.53 43.8592 1985.17 48.0029 1982.8 51.57L1843.14 261.57C1841.09 264.647 1839.79 268.161 1839.34 271.83C1838.9 275.5 1839.31 279.223 1840.56 282.702C1841.82 286.181 1843.86 289.319 1846.54 291.865C1849.22 294.411 1852.46 296.293 1856 297.363C1859.54 298.432 1863.28 298.658 1866.92 298.022C1870.56 297.387 1874.01 295.907 1876.97 293.703C1879.94 291.498 1882.35 288.629 1884.01 285.326C1885.67 282.023 1886.53 278.377 1886.53 274.68V245.57C1886.53 239.291 1889.03 233.271 1893.47 228.832C1897.91 224.393 1903.93 221.9 1910.21 221.9H2021.44C2027.72 221.9 2033.74 224.393 2038.18 228.832C2042.62 233.271 2045.12 239.291 2045.12 245.57V274.65C2045.12 280.93 2047.61 286.953 2052.06 291.394C2056.5 295.835 2062.52 298.33 2068.8 298.33H2087.88C2094.16 298.33 2100.18 300.823 2104.62 305.262C2109.06 309.701 2111.56 315.721 2111.56 322V405.38C2111.56 408.491 2110.95 411.571 2109.76 414.445C2108.57 417.319 2106.83 419.931 2104.63 422.131C2102.43 424.331 2099.82 426.076 2096.94 427.267C2094.07 428.457 2090.99 429.07 2087.88 429.07Z" fill="#EFF0F7"/>
<path fill-rule="evenodd" clip-rule="evenodd" d="M1044.11 426.51H1025C1021.89 426.51 1018.81 427.123 1015.94 428.313C1013.07 429.503 1010.45 431.247 1008.26 433.446C1006.06 435.645 1004.31 438.255 1003.12 441.128C1001.93 444.001 1001.32 447.08 1001.32 450.19V488.56C1001.32 494.84 998.825 500.863 994.384 505.304C989.943 509.745 983.92 512.24 977.64 512.24H861.43C855.151 512.237 849.131 509.741 844.692 505.301C840.253 500.86 837.76 494.839 837.76 488.56V450.19C837.757 443.91 835.262 437.889 830.821 433.449C826.381 429.008 820.359 426.513 814.08 426.51H602.08C595.801 426.51 589.78 424.017 585.339 419.578C580.899 415.139 578.403 409.119 578.4 402.84V326.74C578.399 321.932 579.86 317.238 582.59 313.28L783.55 22.4C785.724 19.2512 788.63 16.6764 792.017 14.8965C795.405 13.1165 799.173 12.1844 803 12.18H919.28C923.57 12.1729 927.781 13.3317 931.463 15.5325C935.145 17.7333 938.159 20.8932 940.185 24.6747C942.21 28.4561 943.17 32.7169 942.961 37.0014C942.752 41.286 941.383 45.4333 939 49L799.36 259C797.314 262.077 796.017 265.591 795.572 269.259C795.127 272.928 795.547 276.649 796.798 280.126C798.049 283.604 800.097 286.74 802.777 289.284C805.457 291.828 808.695 293.709 812.233 294.778C815.77 295.847 819.508 296.072 823.149 295.438C826.789 294.803 830.23 293.325 833.197 291.122C836.164 288.919 838.574 286.052 840.234 282.751C841.895 279.449 842.76 275.805 842.76 272.11V243C842.76 236.72 845.255 230.697 849.696 226.256C854.137 221.815 860.16 219.32 866.44 219.32H977.67C983.95 219.32 989.973 221.815 994.414 226.256C998.855 230.697 1001.35 236.72 1001.35 243V272.1C1001.35 278.375 1003.84 284.394 1008.28 288.834C1012.71 293.274 1018.72 295.772 1025 295.78H1044.08C1050.36 295.78 1056.38 298.275 1060.82 302.716C1065.27 307.157 1067.76 313.18 1067.76 319.46V402.84C1067.76 409.113 1065.27 415.129 1060.83 419.567C1056.4 424.005 1050.38 426.502 1044.11 426.51Z" fill="#CBCBFF"/>
<path fill-rule="evenodd" clip-rule="evenodd" d="M1200.3 492.59C1166.24 471.87 1139.57 441.87 1120.3 402.59C1101.03 363.31 1091.38 316.52 1091.37 262.22C1091.37 207.92 1101.01 161.127 1120.3 121.84C1139.59 82.5534 1166.25 52.5533 1200.3 31.84C1234.34 11.12 1273.51 0.763326 1317.81 0.769992C1362.11 0.776659 1401.28 11.1333 1435.32 31.84C1469.37 52.56 1496.03 82.56 1515.32 121.84C1534.61 161.12 1544.25 207.913 1544.25 262.22C1544.25 316.507 1534.61 363.297 1515.32 402.59C1496.03 441.883 1469.37 471.883 1435.32 492.59C1401.26 513.31 1362.09 523.67 1317.81 523.67C1273.53 523.67 1234.36 513.31 1200.3 492.59ZM1375 262.21C1375 177.91 1355.95 135.763 1317.85 135.77C1279.75 135.777 1260.7 177.923 1260.7 262.21C1260.7 346.497 1279.75 388.643 1317.85 388.65C1355.95 388.657 1375 346.51 1375 262.21Z" fill="#CBCBFF"/>
<path fill-rule="evenodd" clip-rule="evenodd" d="M2047.07 426.51H2028C2021.72 426.51 2015.7 429.005 2011.26 433.446C2006.81 437.887 2004.32 443.91 2004.32 450.19V488.56C2004.32 494.84 2001.83 500.863 1997.38 505.304C1992.94 509.745 1986.92 512.24 1980.64 512.24H1864.4C1858.12 512.24 1852.1 509.745 1847.66 505.304C1843.21 500.863 1840.72 494.84 1840.72 488.56V450.19C1840.72 447.077 1840.11 443.994 1838.91 441.119C1837.72 438.243 1835.97 435.631 1833.77 433.432C1831.57 431.232 1828.95 429.489 1826.07 428.301C1823.2 427.113 1820.11 426.505 1817 426.51H1605C1598.72 426.51 1592.7 424.016 1588.26 419.577C1583.82 415.138 1581.33 409.118 1581.33 402.84V326.74C1581.33 321.932 1582.79 317.238 1585.52 313.28L1786.51 22.4C1788.69 19.2468 1791.6 16.6696 1795 14.8895C1798.39 13.1094 1802.17 12.1796 1806 12.18H1922.27C1926.56 12.1711 1930.77 13.3286 1934.46 15.5286C1938.14 17.7286 1941.16 20.8885 1943.18 24.6702C1945.21 28.452 1946.17 32.7135 1945.96 36.9989C1945.75 41.2843 1944.38 45.4325 1942 49L1802.32 259C1800.27 262.077 1798.98 265.591 1798.53 269.259C1798.09 272.928 1798.51 276.649 1799.76 280.126C1801.01 283.604 1803.06 286.74 1805.74 289.284C1808.42 291.828 1811.65 293.709 1815.19 294.778C1818.73 295.847 1822.47 296.072 1826.11 295.438C1829.75 294.803 1833.19 293.325 1836.16 291.122C1839.12 288.919 1841.53 286.052 1843.19 282.751C1844.86 279.449 1845.72 275.805 1845.72 272.11V243C1845.72 236.72 1848.21 230.697 1852.66 226.256C1857.1 221.815 1863.12 219.32 1869.4 219.32H1980.63C1986.91 219.32 1992.93 221.815 1997.37 226.256C2001.82 230.697 2004.31 236.72 2004.31 243V272.1C2004.31 275.211 2004.92 278.291 2006.11 281.164C2007.3 284.038 2009.05 286.649 2011.25 288.848C2013.45 291.047 2016.06 292.791 2018.94 293.98C2021.81 295.17 2024.89 295.781 2028 295.78H2047.08C2053.36 295.78 2059.38 298.275 2063.82 302.716C2068.27 307.157 2070.76 313.18 2070.76 319.46V402.84C2070.76 405.95 2070.14 409.029 2068.95 411.901C2067.76 414.774 2066.02 417.383 2063.82 419.581C2061.62 421.779 2059.01 423.522 2056.13 424.711C2053.26 425.9 2050.18 426.511 2047.07 426.51Z" fill="#CBCBFF"/>
<path fill-rule="evenodd" clip-rule="evenodd" d="M220.78 819.75C294.03 819.75 354.62 796.25 404.45 748.84C464.06 692.12 498.56 611.5 531.93 533.53C569.64 445.4 605.26 362.16 670.31 341.34C698.97 332.17 725.05 335.25 750.01 350.78C859.78 419.09 901.38 691.04 901.79 693.78L938.88 688.26C937.11 676.38 894.16 396.32 769.82 318.95C735.44 297.54 698.11 293.06 658.88 305.63C577.51 331.63 538.62 422.56 497.45 518.78C433.45 668.3 367.31 822.92 137.04 772.39L25.64 736.39C23.2649 735.483 20.73 735.069 18.1898 735.173C15.6496 735.277 13.157 735.896 10.8638 736.994C8.57065 738.092 6.52485 739.645 4.85088 741.558C3.1769 743.472 1.90979 745.706 1.12663 748.125C0.343481 750.543 0.0607065 753.096 0.295457 755.628C0.530207 758.159 1.27755 760.616 2.49211 762.85C3.70667 765.083 5.36299 767.046 7.36028 768.619C9.35756 770.192 11.6541 771.343 14.11 772L128.11 808.79C161.03 816.09 191.92 819.743 220.78 819.75Z" fill="#5050FD"/>
<path fill-rule="evenodd" clip-rule="evenodd" d="M854.5 1005L814.59 811.51C807.653 777.52 814.245 742.166 832.965 712.96C851.685 683.754 881.056 663 914.837 655.108C948.617 647.217 984.144 652.81 1013.87 670.7C1043.59 688.59 1065.16 717.365 1074 750.91L1123 938.58L854.5 1005Z" fill="url(#paint0_linear_1714_4571)"/>
<path fill-rule="evenodd" clip-rule="evenodd" d="M854.58 1010.08C858.87 1027.89 923.22 1027.66 998.3 1009.57C1073.38 991.48 1130.78 962.39 1126.49 944.57C1122.2 926.75 1057.85 926.99 982.77 945.08C907.69 963.17 850.3 992.28 854.58 1010.08Z" fill="#CBCBFF"/>
<path fill-rule="evenodd" clip-rule="evenodd" d="M1016.71 957.59C1015.63 963.59 1026.37 970.59 1040.71 973.12C1055.05 975.65 1067.53 972.91 1068.6 966.9C1069.67 960.89 1058.94 953.9 1044.6 951.36C1030.26 948.82 1017.79 951.58 1016.71 957.59Z" fill="#5050FD"/>
<path fill-rule="evenodd" clip-rule="evenodd" d="M922.09 986.6C921.01 992.6 931.75 999.6 946.09 1002.14C960.43 1004.68 972.91 1001.92 973.99 995.92C975.07 989.92 964.32 982.92 949.99 980.38C935.66 977.84 923.17 980.59 922.09 986.6Z" fill="#5050FD"/>
<path fill-rule="evenodd" clip-rule="evenodd" d="M974.74 680.24C974.74 680.24 1032.64 701.3 1051.06 761.82C1069.48 822.34 1085.27 900 1085.27 900L1032.64 901.32L974.74 680.24Z" fill="#E7E7FD"/>
<path fill-rule="evenodd" clip-rule="evenodd" d="M923.76 611.66L895.8 660.51L932.64 651.95L923.76 611.66Z" fill="#5050FD"/>
<path fill-rule="evenodd" clip-rule="evenodd" d="M2613.26 560.56L2598.35 593.71C2595.75 592.55 2534.19 563.98 2477.67 463.38C2461.33 434.3 2436.27 400.28 2409.67 403.38C2390.6 405.63 2340.02 432.72 2282.5 635.15C2219.78 855.91 2085.63 1000.15 1883.78 1063.87C1753.14 1105.11 1591.58 1017.09 1584.78 1013.32L1602.37 981.51C1604.37 982.63 1757.37 1065.66 1872.85 1029.21C2062.31 969.4 2188.38 833.48 2247.55 625.21C2294.89 458.59 2346.55 374.21 2405.42 367.27C2442.73 362.86 2477.7 389.2 2509.36 445.52C2560.09 535.81 2612.73 560.27 2613.26 560.52V560.56ZM1602.37 981.56L1593.58 997.47L1602.38 981.56H1602.37Z" fill="#5050FD"/>
<path fill-rule="evenodd" clip-rule="evenodd" d="M1265.06 849.3L1360.81 918.68C1364.66 921.465 1367.24 925.663 1367.99 930.352C1368.74 935.04 1367.59 939.834 1364.81 943.68C1362.03 947.526 1357.83 950.107 1353.14 950.858C1348.45 951.608 1343.66 950.465 1339.81 947.68L1244.07 878.3C1242.17 876.921 1240.55 875.181 1239.32 873.178C1238.09 871.175 1237.26 868.95 1236.89 866.628C1236.52 864.307 1236.61 861.935 1237.16 859.648C1237.7 857.361 1238.69 855.204 1240.07 853.3C1241.45 851.396 1243.19 849.782 1245.19 848.55C1247.19 847.319 1249.42 846.494 1251.74 846.122C1254.06 845.751 1256.43 845.84 1258.72 846.386C1261.01 846.931 1263.17 847.921 1265.07 849.3H1265.06Z" fill="#5050FD"/>
<path fill-rule="evenodd" clip-rule="evenodd" d="M1338.92 743L1434.67 812.38C1436.57 813.759 1438.19 815.499 1439.42 817.502C1440.65 819.505 1441.48 821.73 1441.85 824.051C1442.22 826.373 1442.13 828.745 1441.58 831.032C1441.04 833.319 1440.05 835.476 1438.67 837.38C1437.29 839.284 1435.55 840.898 1433.55 842.13C1431.55 843.361 1429.32 844.186 1427 844.558C1424.68 844.929 1422.3 844.84 1420.02 844.294C1417.73 843.749 1415.57 842.759 1413.67 841.38L1317.93 772C1314.08 769.215 1311.5 765.017 1310.75 760.328C1310 755.64 1311.15 750.846 1313.93 747C1316.71 743.154 1320.91 740.572 1325.6 739.822C1330.29 739.072 1335.08 740.215 1338.93 743H1338.92Z" fill="#5050FD"/>
<path fill-rule="evenodd" clip-rule="evenodd" d="M1673.93 1019.12L1614.5 1027.97L1630.95 994.84L1687.14 1016.97L1673.93 1019.12Z" fill="#442F86"/>
<path fill-rule="evenodd" clip-rule="evenodd" d="M1272.35 948.58L1438 1056.25C1467.13 1075.23 1502.52 1082.07 1536.62 1075.32C1570.72 1068.56 1600.83 1048.75 1620.52 1020.11C1640.22 991.464 1647.94 956.256 1642.04 921.998C1636.14 887.739 1617.08 857.144 1588.94 836.74L1432.02 722.74L1272.35 948.58Z" fill="#5050FD"/>
<path fill-rule="evenodd" clip-rule="evenodd" d="M1327.89 956.46L1366.02 904.86L1561.66 1045.78C1561.66 1045.78 1514.77 1069.14 1460.78 1042.9C1406.79 1016.66 1327.89 956.46 1327.89 956.46Z" fill="#E7E7FD"/>
<defs>
<linearGradient id="paint0_linear_1714_4571" x1="1102.84" y1="779.5" x2="801.91" y2="848.98" gradientUnits="userSpaceOnUse">
<stop stop-color="#5D5DF6"/>
<stop offset="0.299112" stop-color="#5D5DF6"/>
<stop offset="1" stop-color="#5E5EF7"/>
</linearGradient>
</defs>
</svg>
