<svg width="720" height="1080" viewBox="0 0 720 1080" fill="none" xmlns="http://www.w3.org/2000/svg">
<rect width="720" height="1080" fill="#141620"/>
<path fill-rule="evenodd" clip-rule="evenodd" d="M459.321 281.947C469.671 281.947 478.061 290.337 478.061 300.687V315.679C478.061 326.028 469.671 334.418 459.321 334.418L404.976 334.418C394.626 334.418 386.236 342.809 386.236 353.158V368.15C386.236 378.5 394.626 386.89 404.976 386.89H462.132C472.482 386.89 480.872 395.281 480.872 405.63V420.622C480.872 430.972 472.482 439.362 462.132 439.362H404.976C394.626 439.362 386.236 447.753 386.236 458.102V580.849C386.236 591.199 377.846 599.589 367.496 599.589H352.504C342.154 599.589 333.764 607.979 333.764 618.329V629.573C333.764 639.923 325.374 648.313 315.024 648.313H257.868C247.518 648.313 239.128 639.923 239.128 629.573L239.128 614.581C239.128 604.231 247.518 595.841 257.868 595.841H315.024C325.374 595.841 333.764 587.451 333.764 577.101V458.102C333.764 447.753 325.374 439.362 315.024 439.362H257.868C247.518 439.362 239.128 430.972 239.128 420.622L239.128 405.63C239.128 395.281 247.518 386.89 257.868 386.89H315.024C325.374 386.89 333.764 378.5 333.764 368.15V352.221C333.764 341.872 342.154 333.481 352.504 333.481L364.685 333.481C375.035 333.481 383.425 325.091 383.425 314.742V300.687C383.425 290.337 391.815 281.947 402.165 281.947L459.321 281.947Z" fill="white"/>
<path fill-rule="evenodd" clip-rule="evenodd" d="M459.321 293.819C469.671 293.819 478.061 302.209 478.061 312.559V327.551C478.061 337.901 469.671 346.291 459.321 346.291L404.976 346.291C394.626 346.291 386.236 354.681 386.236 365.031V380.023C386.236 390.373 394.626 398.763 404.976 398.763H462.132C472.482 398.763 480.872 407.153 480.872 417.503V432.495C480.872 442.845 472.482 451.235 462.132 451.235H404.976C394.626 451.235 386.236 459.625 386.236 469.975V592.722C386.236 603.071 377.846 611.462 367.496 611.462H352.504C342.154 611.462 333.764 619.852 333.764 630.202V641.445C333.764 651.795 325.374 660.185 315.024 660.185H257.868C247.518 660.185 239.128 651.795 239.128 641.445L239.128 626.454C239.128 616.104 247.518 607.714 257.868 607.714H315.024C325.374 607.714 333.764 599.323 333.764 588.974V469.975C333.764 459.625 325.374 451.235 315.024 451.235H257.868C247.518 451.235 239.128 442.845 239.128 432.495L239.128 417.503C239.128 407.153 247.518 398.763 257.868 398.763H315.024C325.374 398.763 333.764 390.373 333.764 380.023V364.094C333.764 353.744 342.154 345.354 352.504 345.354L364.685 345.354C375.035 345.354 383.425 336.964 383.425 326.614V312.559C383.425 302.209 391.815 293.819 402.165 293.819L459.321 293.819Z" fill="#59A9FF"/>
<path fill-rule="evenodd" clip-rule="evenodd" d="M459.321 307.388C469.671 307.388 478.061 315.778 478.061 326.128V341.12C478.061 351.47 469.671 359.86 459.321 359.86L404.976 359.86C394.626 359.86 386.236 368.25 386.236 378.6V393.592C386.236 403.942 394.626 412.332 404.976 412.332H462.132C472.482 412.332 480.872 420.722 480.872 431.072V446.064C480.872 456.414 472.482 464.804 462.132 464.804H404.976C394.626 464.804 386.236 473.194 386.236 483.544V606.291C386.236 616.641 377.846 625.031 367.496 625.031H352.504C342.154 625.031 333.764 633.421 333.764 643.771V655.015C333.764 665.365 325.374 673.755 315.024 673.755H257.868C247.518 673.755 239.128 665.365 239.128 655.015L239.128 640.023C239.128 629.673 247.518 621.283 257.868 621.283H315.024C325.374 621.283 333.764 612.893 333.764 602.543V483.544C333.764 473.194 325.374 464.804 315.024 464.804H257.868C247.518 464.804 239.128 456.414 239.128 446.064L239.128 431.072C239.128 420.722 247.518 412.332 257.868 412.332H315.024C325.374 412.332 333.764 403.942 333.764 393.592V377.663C333.764 367.313 342.154 358.923 352.504 358.923L364.685 358.923C375.035 358.923 383.425 350.533 383.425 340.183V326.128C383.425 315.778 391.815 307.388 402.165 307.388L459.321 307.388Z" fill="#C1EA55"/>
<path fill-rule="evenodd" clip-rule="evenodd" d="M459.321 319.262C469.671 319.262 478.061 327.652 478.061 338.002V352.994C478.061 363.343 469.671 371.734 459.321 371.734L404.976 371.734C394.626 371.734 386.236 380.124 386.236 390.474V405.466C386.236 415.815 394.626 424.206 404.976 424.206H462.132C472.482 424.206 480.872 432.596 480.872 442.946V457.938C480.872 468.287 472.482 476.678 462.132 476.678H404.976C394.626 476.678 386.236 485.068 386.236 495.418V618.164C386.236 628.514 377.846 636.904 367.496 636.904H352.504C342.154 636.904 333.764 645.295 333.764 655.644V666.888C333.764 677.238 325.374 685.628 315.024 685.628H257.868C247.518 685.628 239.128 677.238 239.128 666.888L239.128 651.896C239.128 641.547 247.518 633.156 257.868 633.156H315.024C325.374 633.156 333.764 624.766 333.764 614.416V495.418C333.764 485.068 325.374 476.678 315.024 476.678H257.868C247.518 476.678 239.128 468.287 239.128 457.938L239.128 442.946C239.128 432.596 247.518 424.206 257.868 424.206H315.024C325.374 424.206 333.764 415.815 333.764 405.466V389.537C333.764 379.187 342.154 370.797 352.504 370.797L364.685 370.797C375.035 370.797 383.425 362.406 383.425 352.057V338.002C383.425 327.652 391.815 319.262 402.165 319.262L459.321 319.262Z" fill="#ADD442"/>
<path fill-rule="evenodd" clip-rule="evenodd" d="M459.321 329.438C469.671 329.438 478.061 337.829 478.061 348.178V363.17C478.061 373.52 469.671 381.91 459.321 381.91L404.976 381.91C394.626 381.91 386.236 390.301 386.236 400.65V415.642C386.236 425.992 394.626 434.382 404.976 434.382H462.132C472.482 434.382 480.872 442.773 480.872 453.122V468.114C480.872 478.464 472.482 486.854 462.132 486.854H404.976C394.626 486.854 386.236 495.244 386.236 505.594V628.341C386.236 638.691 377.846 647.081 367.496 647.081H352.504C342.154 647.081 333.764 655.471 333.764 665.821V677.065C333.764 687.415 325.374 695.805 315.024 695.805H257.868C247.518 695.805 239.128 687.415 239.128 677.065L239.128 662.073C239.128 651.723 247.518 643.333 257.868 643.333H315.024C325.374 643.333 333.764 634.943 333.764 624.593V505.594C333.764 495.244 325.374 486.854 315.024 486.854H257.868C247.518 486.854 239.128 478.464 239.128 468.114L239.128 453.122C239.128 442.773 247.518 434.382 257.868 434.382H315.024C325.374 434.382 333.764 425.992 333.764 415.642V399.713C333.764 389.364 342.154 380.973 352.504 380.973L364.685 380.973C375.035 380.973 383.425 372.583 383.425 362.233V348.178C383.425 337.829 391.815 329.438 402.165 329.438L459.321 329.438Z" fill="#B7006E"/>
<g clip-path="url(#clip0_8270_14860)">
<path fill-rule="evenodd" clip-rule="evenodd" d="M484.142 783.293C482.589 783.293 481.33 784.544 481.33 786.086V788.321C481.33 789.863 482.589 791.114 484.142 791.114H513.397C514.951 791.114 516.21 789.863 516.21 788.321V786.086C516.21 784.544 514.951 783.293 513.397 783.293H504.817C503.264 783.293 502.005 782.043 502.005 780.5V762.207C502.005 760.664 503.264 759.414 504.817 759.414H511.709C513.262 759.414 514.522 758.163 514.522 756.621V754.386C514.522 752.844 513.262 751.593 511.709 751.593H504.677C503.123 751.593 501.864 752.844 501.864 754.386V756.621C501.864 758.163 500.605 759.414 499.051 759.414H496.942C495.388 759.414 494.128 760.664 494.128 762.207V780.5C494.128 782.043 492.869 783.293 491.315 783.293H484.142Z" fill="white"/>
<path fill-rule="evenodd" clip-rule="evenodd" d="M416.913 736.947C418.467 736.947 419.726 738.197 419.726 739.74V740.717C419.726 742.26 420.986 743.51 422.54 743.51H424.508C426.062 743.51 427.321 744.761 427.321 746.303V780.377C427.321 781.92 428.581 783.17 430.135 783.17H437.307C438.861 783.17 440.12 784.421 440.12 785.963V788.197C440.12 789.74 438.861 790.99 437.307 790.99H408.053C406.499 790.99 405.24 789.74 405.24 788.197V785.963C405.24 784.421 406.499 783.17 408.053 783.17H416.633C418.186 783.17 419.445 781.92 419.445 780.377V747.56C419.445 746.018 418.186 744.767 416.633 744.767H409.881C408.328 744.767 407.069 743.517 407.069 741.974V739.74C407.069 738.197 408.328 736.947 409.881 736.947H416.913Z" fill="white"/>
<path fill-rule="evenodd" clip-rule="evenodd" d="M546.116 751.593C547.67 751.593 548.929 752.844 548.929 754.386V756.621C548.929 758.163 550.188 759.414 551.742 759.414H553.57C555.124 759.414 556.383 760.664 556.383 762.207V772.401C556.383 773.943 555.124 775.194 553.57 775.194H548.507H534.161C532.607 775.194 531.348 776.444 531.348 777.987V780.5C531.348 782.043 532.607 783.293 534.161 783.293H553.57C555.124 783.293 556.383 784.544 556.383 786.086V788.321C556.383 789.863 555.124 791.114 553.57 791.114H533.598C532.045 791.114 530.786 789.863 530.786 788.321V786.086C530.786 784.544 529.527 783.293 527.973 783.293H526.285C524.732 783.293 523.472 782.043 523.472 780.5V759.414V754.386C523.472 752.844 524.732 751.593 526.285 751.593H531.348H546.116ZM548.507 764.581C548.507 766.123 547.247 767.373 545.694 767.373H534.161C532.607 767.373 531.348 766.123 531.348 764.581V762.207C531.348 760.664 532.607 759.414 534.161 759.414H545.694C547.247 759.414 548.507 760.664 548.507 762.207V764.581Z" fill="white"/>
<path d="M449.102 783.515C450.643 783.515 451.893 784.775 451.893 786.329V788.299C451.893 789.854 453.143 791.114 454.684 791.114H460.973C462.515 791.114 463.764 789.854 463.764 788.299V786.047C463.764 784.493 462.515 783.233 460.973 783.233H454.684C453.143 783.233 451.893 781.973 451.893 780.419V765.239H444.077V780.7C444.077 782.255 445.327 783.515 446.868 783.515H449.102Z" fill="white"/>
<path d="M451.893 773.765H444.077V762.007C444.077 760.452 445.327 759.192 446.868 759.192H449.102C450.643 759.192 451.893 757.932 451.893 756.378V754.408C451.893 752.853 453.143 751.593 454.684 751.593H460.973C462.515 751.593 463.764 752.853 463.764 754.408V756.659C463.764 758.214 462.515 759.474 460.973 759.474H454.684C453.143 759.474 451.893 760.734 451.893 762.288V773.765Z" fill="white"/>
<path d="M471.26 783.515C469.719 783.515 468.469 784.775 468.469 786.329V788.299C468.469 789.854 467.219 791.114 465.678 791.114H459.389C457.847 791.114 456.598 789.854 456.598 788.299V786.047C456.598 784.493 457.847 783.233 459.389 783.233H465.678C467.219 783.233 468.469 781.973 468.469 780.419V765.239H476.285V780.7C476.285 782.255 475.035 783.515 473.494 783.515H471.26Z" fill="white"/>
<path d="M468.469 773.765H476.285V762.007C476.285 760.452 475.035 759.192 473.494 759.192H471.26C469.719 759.192 468.469 757.932 468.469 756.378V754.408C468.469 752.853 467.219 751.593 465.678 751.593H459.389C457.847 751.593 456.598 752.853 456.598 754.408V756.659C456.598 758.214 457.847 759.474 459.389 759.474H465.678C467.219 759.474 468.469 760.734 468.469 762.288V773.765Z" fill="white"/>
<path fill-rule="evenodd" clip-rule="evenodd" d="M196.414 736.094C197.967 736.094 199.226 737.344 199.226 738.887V741.121C199.226 742.664 197.967 743.914 196.414 743.914H188.256C186.703 743.914 185.443 745.164 185.443 746.707V748.941C185.443 750.484 186.703 751.734 188.256 751.734H196.835C198.389 751.734 199.648 752.985 199.648 754.527V756.762C199.648 758.304 198.389 759.555 196.835 759.555H188.256C186.703 759.555 185.443 760.805 185.443 762.347V780.641C185.443 782.184 184.184 783.434 182.63 783.434H180.38C178.827 783.434 177.567 784.685 177.567 786.227V787.903C177.567 789.446 176.308 790.696 174.754 790.696H166.175C164.621 790.696 163.362 789.446 163.362 787.903V785.669C163.362 784.126 164.621 782.876 166.175 782.876H174.754C176.308 782.876 177.567 781.625 177.567 780.083V762.347C177.567 760.805 176.308 759.555 174.754 759.555H166.175C164.621 759.555 163.362 758.304 163.362 756.762V754.527C163.362 752.985 164.621 751.734 166.175 751.734H174.754C176.308 751.734 177.567 750.484 177.567 748.941V746.567C177.567 745.025 178.827 743.774 180.38 743.774H182.208C183.762 743.774 185.021 742.524 185.021 740.981V738.887C185.021 737.344 186.281 736.094 187.834 736.094L196.414 736.094ZM218.354 741.4C218.354 742.943 219.613 744.193 221.167 744.193H223.417C224.971 744.193 226.23 742.943 226.23 741.4V739.026C226.23 737.484 224.971 736.233 223.417 736.233H221.167C219.613 736.233 218.354 737.484 218.354 739.026V741.4ZM254.712 736.652C256.266 736.652 257.525 737.903 257.525 739.445V740.423C257.525 741.965 258.785 743.216 260.339 743.216H262.307C263.861 743.216 265.12 744.466 265.12 746.009V780.083C265.12 781.625 266.38 782.876 267.933 782.876H275.106C276.66 782.876 277.919 784.126 277.919 785.669V787.903C277.919 789.446 276.66 790.696 275.106 790.696H245.852C244.298 790.696 243.039 789.446 243.039 787.903V785.669C243.039 784.126 244.298 782.876 245.852 782.876H254.432C255.985 782.876 257.244 781.625 257.244 780.083V747.266C257.244 745.723 255.985 744.473 254.432 744.473H247.68C246.127 744.473 244.867 743.222 244.867 741.68V739.445C244.867 737.903 246.127 736.652 247.68 736.652H254.712ZM215.822 751.176C217.376 751.176 218.635 752.426 218.635 753.969V756.203C218.635 757.746 219.895 758.996 221.448 758.996H223.417C224.971 758.996 226.23 760.246 226.23 761.789V780.083C226.23 781.625 227.49 782.876 229.043 782.876H236.216C237.769 782.876 239.029 784.126 239.029 785.669V787.903C239.029 789.446 237.769 790.696 236.216 790.696H206.962C205.408 790.696 204.149 789.446 204.149 787.903V785.669C204.149 784.126 205.408 782.876 206.962 782.876H215.541C217.095 782.876 218.354 781.625 218.354 780.083V761.789C218.354 760.246 217.095 758.996 215.541 758.996H208.79C207.237 758.996 205.977 757.746 205.977 756.203V753.969C205.977 752.426 207.237 751.176 208.79 751.176H215.822Z" fill="white"/>
<path d="M336.752 754.386C336.752 752.844 335.492 751.593 333.939 751.593H323.733C322.18 751.593 320.92 752.844 320.92 754.386V756.621C320.92 758.163 322.18 759.414 323.733 759.414L333.658 759.414C335.211 759.414 336.47 760.664 336.47 762.207V777.89H344.347V762.207C344.347 760.664 343.087 759.414 341.534 759.414H339.565C338.011 759.414 336.752 758.163 336.752 756.621V754.386Z" fill="white"/>
<path d="M344.464 754.386C344.464 752.844 345.723 751.593 347.277 751.593H357.479C359.032 751.593 360.291 752.844 360.291 754.386V756.621C360.291 758.163 359.032 759.414 357.479 759.414H347.559C346.005 759.414 344.746 760.664 344.746 762.207V777.89H336.87V762.207C336.87 760.664 338.129 759.414 339.682 759.414H341.652C343.205 759.414 344.464 758.163 344.464 756.621V754.386Z" fill="white"/>
<path d="M336.752 788.197C336.752 789.74 335.492 790.99 333.939 790.99H323.733C322.18 790.99 320.92 789.74 320.92 788.197V785.963C320.92 784.421 322.18 783.17 323.733 783.17L333.658 783.17C335.211 783.17 336.47 781.92 336.47 780.377V764.694H344.347V780.377C344.347 781.92 343.087 783.17 341.534 783.17H339.565C338.011 783.17 336.752 784.421 336.752 785.963V788.197Z" fill="white"/>
<path d="M344.464 788.197C344.464 789.74 345.723 790.99 347.277 790.99H357.479C359.032 790.99 360.291 789.74 360.291 788.197V785.963C360.291 784.421 359.032 783.17 357.479 783.17H347.559C346.005 783.17 344.746 781.92 344.746 780.377V764.694H336.87V780.377C336.87 781.92 338.129 783.17 339.682 783.17H341.652C343.205 783.17 344.464 784.421 344.464 785.963V788.197Z" fill="white"/>
<path d="M379.821 789.644V794.752C379.821 796.294 381.08 797.544 382.634 797.544H391.213C392.766 797.544 394.025 798.795 394.025 800.337V802.572C394.025 804.114 392.766 805.365 391.213 805.365H361.959C360.405 805.365 359.146 804.114 359.146 802.572V800.337C359.146 798.795 360.405 797.544 361.959 797.544H369.132C370.685 797.544 371.944 796.294 371.944 794.752V789.644H379.821Z" fill="white"/>
<path fill-rule="evenodd" clip-rule="evenodd" d="M401.436 754.211V772.406H401.419V775.172C401.419 776.717 400.177 777.969 398.646 777.969H396.427C394.894 777.969 393.652 779.221 393.652 780.766V782.724C393.652 784.268 392.41 785.521 390.878 785.521H382.464C381.12 785.587 380.024 786.589 379.824 787.884V791.341H371.948V786.265H371.951V761.671C372.016 760.186 373.249 759.002 374.761 759.002H376.59C378.143 759.002 379.402 757.751 379.402 756.209V754.114C379.402 752.572 380.661 751.321 382.215 751.321L398.764 751.321C400.24 751.321 401.436 752.615 401.436 754.211ZM389.769 759.153V759.17H391.205C392.591 759.326 393.669 760.511 393.669 761.95V765.831H393.652V774.892C393.652 776.437 392.41 777.689 390.878 777.689H382.392C381.084 777.592 380.025 776.607 379.826 775.339V764.256C379.825 764.227 379.824 764.198 379.824 764.169V761.934C379.824 760.392 381.084 759.141 382.637 759.141H384.301C384.383 759.149 384.467 759.153 384.552 759.153H389.769Z" fill="white"/>
<path fill-rule="evenodd" clip-rule="evenodd" d="M305.608 751.47C307.161 751.47 308.421 752.72 308.421 754.263V756.497C308.421 758.04 309.681 759.29 311.234 759.29H313.063C314.616 759.29 315.875 760.541 315.875 762.083V772.277C315.875 773.82 314.616 775.07 313.063 775.07H307.999H293.654C292.1 775.07 290.84 776.321 290.84 777.863V780.377C290.84 781.92 292.1 783.17 293.654 783.17H313.063C314.616 783.17 315.875 784.421 315.875 785.963V788.197C315.875 789.74 314.616 790.99 313.063 790.99H293.091C291.538 790.99 290.278 789.74 290.278 788.197V785.963C290.278 784.421 289.018 783.17 287.465 783.17H285.777C284.224 783.17 282.964 781.92 282.964 780.377V759.29V754.263C282.964 752.72 284.224 751.47 285.777 751.47H290.84H305.608ZM307.999 764.457C307.999 766 306.74 767.25 305.186 767.25H293.654C292.1 767.25 290.84 766 290.84 764.457V762.083C290.84 760.541 292.1 759.29 293.654 759.29H305.186C306.74 759.29 307.999 760.541 307.999 762.083V764.457Z" fill="white"/>
</g>
<defs>
<clipPath id="clip0_8270_14860">
<rect width="393.75" height="70" fill="white" transform="translate(163 736)"/>
</clipPath>
</defs>
</svg>
