<svg width="44" height="60" viewBox="0 0 44 60" fill="none" xmlns="http://www.w3.org/2000/svg">
<path d="M21.211 35.6152C21.6079 35.3909 22.2515 35.3909 22.6484 35.6152L41.7037 46.3864C42.8945 47.0594 42.8945 48.1507 41.7037 48.8238L22.6484 59.5949C22.2515 59.8193 21.6079 59.8193 21.211 59.5949L2.15568 48.8238C0.964921 48.1507 0.964923 47.0594 2.15569 46.3864L21.211 35.6152Z" fill="url(#paint0_linear_7675_11462)"/>
<path d="M21.211 28.498C21.6079 28.2737 22.2515 28.2737 22.6484 28.498L41.7037 39.2692C42.8945 39.9423 42.8945 41.0335 41.7037 41.7066L22.6484 52.4778C22.2515 52.7021 21.6079 52.7021 21.211 52.4778L2.15568 41.7066C0.964921 41.0335 0.964923 39.9423 2.15569 39.2692L21.211 28.498Z" fill="url(#paint1_linear_7675_11462)"/>
<path d="M21.211 21.3691C21.6079 21.1448 22.2515 21.1448 22.6484 21.3691L41.7037 32.1403C42.8945 32.8133 42.8945 33.9046 41.7037 34.5777L22.6484 45.3488C22.2515 45.5732 21.6079 45.5732 21.211 45.3488L2.15568 34.5777C0.964921 33.9046 0.964923 32.8133 2.15569 32.1403L21.211 21.3691Z" fill="url(#paint2_linear_7675_11462)"/>
<path d="M21.3506 14.6523C21.7476 14.428 22.3911 14.428 22.788 14.6523L41.8433 25.4235C43.0341 26.0965 43.0341 27.1878 41.8433 27.8609L22.788 38.632C22.3911 38.8564 21.7476 38.8564 21.3506 38.632L2.29533 27.8609C1.10457 27.1878 1.10457 26.0965 2.29533 25.4235L21.3506 14.6523Z" fill="url(#paint3_linear_7675_11462)"/>
<path d="M21.3506 7.53515C21.7476 7.31079 22.3911 7.31079 22.788 7.53515L41.8433 18.3063C43.0341 18.9794 43.0341 20.0706 41.8433 20.7437L22.788 31.5149C22.3911 31.7392 21.7476 31.7392 21.3506 31.5149L2.29533 20.7437C1.10457 20.0706 1.10457 18.9794 2.29533 18.3063L21.3506 7.53515Z" fill="url(#paint4_linear_7675_11462)"/>
<path d="M21.3506 0.406243C21.7476 0.181881 22.3911 0.181881 22.788 0.406243L41.8433 11.1774C43.0341 11.8505 43.0341 12.9417 41.8433 13.6148L22.788 24.386C22.3911 24.6103 21.7476 24.6103 21.3506 24.386L2.29533 13.6148C1.10457 12.9417 1.10457 11.8505 2.29533 11.1774L21.3506 0.406243Z" fill="url(#paint5_linear_7675_11462)"/>
<defs>
<linearGradient id="paint0_linear_7675_11462" x1="21.9297" y1="61.0387" x2="23.5921" y2="43.1385" gradientUnits="userSpaceOnUse">
<stop stop-color="#525BFF"/>
<stop offset="1" stop-color="#3480FF"/>
</linearGradient>
<linearGradient id="paint1_linear_7675_11462" x1="23.3893" y1="55.6238" x2="29.6038" y2="38.8486" gradientUnits="userSpaceOnUse">
<stop stop-color="#BBE2FF"/>
<stop offset="1" stop-color="#EAF6FF"/>
</linearGradient>
<linearGradient id="paint2_linear_7675_11462" x1="23.4565" y1="24.9365" x2="21.9927" y2="45.7595" gradientUnits="userSpaceOnUse">
<stop stop-color="#02BEFF"/>
<stop offset="1" stop-color="#3481FF"/>
</linearGradient>
<linearGradient id="paint3_linear_7675_11462" x1="22.0693" y1="40.0758" x2="23.7318" y2="22.1756" gradientUnits="userSpaceOnUse">
<stop stop-color="#525BFF"/>
<stop offset="1" stop-color="#3480FF"/>
</linearGradient>
<linearGradient id="paint4_linear_7675_11462" x1="23.529" y1="34.6609" x2="29.7434" y2="17.8857" gradientUnits="userSpaceOnUse">
<stop stop-color="#BBE2FF"/>
<stop offset="1" stop-color="#EAF6FF"/>
</linearGradient>
<linearGradient id="paint5_linear_7675_11462" x1="23.5961" y1="3.97357" x2="22.1323" y2="24.7966" gradientUnits="userSpaceOnUse">
<stop stop-color="#02BEFF"/>
<stop offset="1" stop-color="#3481FF"/>
</linearGradient>
</defs>
</svg>
