<svg width="20" height="20" viewBox="0 0 20 20" fill="none" xmlns="http://www.w3.org/2000/svg">
<g clip-path="url(#clip0_184_4760)">
<path d="M5.00065 1.6665C4.08398 1.6665 3.34232 2.4165 3.34232 3.33317L3.33398 16.6665C3.33398 17.5832 4.07565 18.3332 4.99232 18.3332H15.0007C15.9173 18.3332 16.6673 17.5832 16.6673 16.6665V6.6665L11.6673 1.6665H5.00065ZM10.834 7.49984V2.9165L15.4173 7.49984H10.834Z" fill="#141620"/>
<path d="M7.72412 12.1353H8.61621V15.7104C8.61621 16.0477 8.54102 16.3337 8.39062 16.5684C8.24251 16.8053 8.03516 16.9842 7.76855 17.105C7.50195 17.228 7.19206 17.2896 6.83887 17.2896C6.68392 17.2896 6.51986 17.269 6.34668 17.228C6.17578 17.187 6.01172 17.1232 5.85449 17.0366C5.69954 16.95 5.56966 16.8407 5.46484 16.7085L5.89893 16.1274C6.01286 16.2596 6.14502 16.3621 6.29541 16.4351C6.4458 16.5103 6.61214 16.5479 6.79443 16.5479C6.97217 16.5479 7.12256 16.5148 7.24561 16.4487C7.36865 16.3849 7.46322 16.2904 7.5293 16.165C7.59538 16.042 7.62842 15.8927 7.62842 15.7173V12.9897L7.72412 12.1353ZM5.23584 14.0288V13.957C5.23584 13.6745 5.27002 13.4181 5.33838 13.188C5.40902 12.9556 5.50814 12.7562 5.63574 12.5898C5.76562 12.4235 5.92285 12.2948 6.10742 12.2036C6.29199 12.1125 6.50049 12.0669 6.73291 12.0669C6.979 12.0669 7.18522 12.1125 7.35156 12.2036C7.5179 12.2948 7.65462 12.4246 7.76172 12.5933C7.86882 12.7596 7.95199 12.9567 8.01123 13.1846C8.07275 13.4102 8.12061 13.6574 8.15479 13.9263V14.0835C8.12061 14.341 8.06934 14.5802 8.00098 14.8013C7.93262 15.0223 7.84261 15.216 7.73096 15.3823C7.6193 15.5464 7.48031 15.674 7.31396 15.7651C7.1499 15.8563 6.95394 15.9019 6.72607 15.9019C6.49821 15.9019 6.29199 15.8551 6.10742 15.7617C5.92513 15.6683 5.76904 15.5373 5.63916 15.3687C5.50928 15.2 5.40902 15.0018 5.33838 14.7739C5.27002 14.5461 5.23584 14.2977 5.23584 14.0288ZM6.22021 13.957V14.0288C6.22021 14.1815 6.23503 14.3239 6.26465 14.4561C6.29427 14.5882 6.33984 14.7056 6.40137 14.8081C6.46517 14.9084 6.54378 14.987 6.63721 15.0439C6.73291 15.0986 6.8457 15.126 6.97559 15.126C7.1556 15.126 7.30257 15.0884 7.4165 15.0132C7.53044 14.9357 7.61589 14.8298 7.67285 14.6953C7.72982 14.5609 7.76286 14.4059 7.77197 14.2305V13.7827C7.76742 13.6392 7.74805 13.5104 7.71387 13.3965C7.67969 13.2803 7.63184 13.1812 7.57031 13.0991C7.50879 13.0171 7.42904 12.9533 7.33105 12.9077C7.23307 12.8621 7.11686 12.8394 6.98242 12.8394C6.85254 12.8394 6.73975 12.869 6.64404 12.9282C6.55062 12.9852 6.47201 13.0638 6.4082 13.1641C6.34668 13.2643 6.29997 13.3828 6.26807 13.5195C6.23617 13.654 6.22021 13.7998 6.22021 13.957ZM11.5659 17.2554V12.8906L11.6924 12.1353H12.5571V17.2554H11.5659ZM9.22803 14.022V13.9502C9.22803 13.6676 9.25879 13.4113 9.32031 13.1812C9.38411 12.9487 9.47754 12.7505 9.60059 12.5864C9.72363 12.4201 9.87402 12.2925 10.0518 12.2036C10.2318 12.1125 10.4391 12.0669 10.6738 12.0669C10.8994 12.0669 11.0942 12.1125 11.2583 12.2036C11.4224 12.2948 11.5602 12.4235 11.6719 12.5898C11.7858 12.7562 11.877 12.9521 11.9453 13.1777C12.0137 13.4033 12.0661 13.6506 12.1025 13.9194V14.0767C12.0684 14.3341 12.016 14.5734 11.9453 14.7944C11.877 15.0155 11.7858 15.2091 11.6719 15.3755C11.5602 15.5418 11.4212 15.6717 11.2549 15.7651C11.0908 15.8563 10.8949 15.9019 10.667 15.9019C10.4368 15.9019 10.2318 15.8551 10.0518 15.7617C9.87402 15.666 9.72363 15.5339 9.60059 15.3652C9.47754 15.1966 9.38411 14.9984 9.32031 14.7705C9.25879 14.5404 9.22803 14.2909 9.22803 14.022ZM10.2124 13.9502V14.022C10.2124 14.1746 10.2249 14.3182 10.25 14.4526C10.2751 14.5848 10.3149 14.7021 10.3696 14.8047C10.4266 14.9072 10.4995 14.9881 10.5884 15.0474C10.6772 15.1043 10.7866 15.1328 10.9165 15.1328C11.0965 15.1328 11.2412 15.0941 11.3506 15.0166C11.4622 14.9368 11.5443 14.8286 11.5967 14.6919C11.6514 14.5552 11.6833 14.3991 11.6924 14.2236V13.7759C11.6855 13.6323 11.6662 13.5036 11.6343 13.3896C11.6047 13.2734 11.5591 13.1743 11.4976 13.0923C11.4383 13.0103 11.3608 12.9476 11.2651 12.9043C11.1717 12.8587 11.0578 12.8359 10.9233 12.8359C10.7957 12.8359 10.6864 12.8644 10.5952 12.9214C10.5041 12.9784 10.43 13.0581 10.373 13.1606C10.3184 13.2609 10.2773 13.3783 10.25 13.5127C10.2249 13.6471 10.2124 13.793 10.2124 13.9502ZM14.3721 10.5835V15.8335H13.3843V10.5835H14.3721Z" fill="#D5FF64"/>
</g>
<defs>
<clipPath id="clip0_184_4760">
<rect width="20" height="20" fill="white"/>
</clipPath>
</defs>
</svg>
