<svg width="155" height="31" viewBox="0 0 155 31" fill="none" xmlns="http://www.w3.org/2000/svg">
<path fill-rule="evenodd" clip-rule="evenodd" d="M6.8 0.294922C3.04446 0.294922 0 3.33938 0 7.09492V23.4949C0 27.2504 3.04447 30.2949 6.8 30.2949H23.2C26.9555 30.2949 30 27.2504 30 23.4949V7.09492C30 3.33938 26.9555 0.294922 23.2 0.294922H6.8ZM21.0372 7.2337C21.0372 6.7152 20.6207 6.2949 20.107 6.2949H17.2698C16.756 6.2949 16.3395 6.7152 16.3395 7.2337V7.93778C16.3395 8.45622 15.923 8.87652 15.4093 8.87652H14.8047C14.2909 8.87652 13.8744 9.29682 13.8744 9.81532V10.6132C13.8744 11.1317 13.4579 11.552 12.9442 11.552H10.107C9.59321 11.552 9.17677 11.9723 9.17677 12.4908V13.2418C9.17677 13.7603 9.59321 14.1806 10.107 14.1806H12.9442C13.4579 14.1806 13.8744 14.6009 13.8744 15.1194V21.0805C13.8744 21.599 13.4579 22.0193 12.9442 22.0193H10.107C9.59321 22.0193 9.17677 22.4396 9.17677 22.9581V23.7091C9.17677 24.2276 9.59321 24.6479 10.107 24.6479H12.9442C13.4579 24.6479 13.8744 24.2276 13.8744 23.7091V23.1458C13.8744 22.6274 14.2909 22.2071 14.8047 22.2071H15.5488C16.0626 22.2071 16.4791 21.7868 16.4791 21.2683V15.1194C16.4791 14.6009 16.8956 14.1806 17.4093 14.1806H20.2465C20.7603 14.1806 21.1768 13.7603 21.1768 13.2418V12.4908C21.1768 11.9723 20.7603 11.552 20.2465 11.552H17.4093C16.8956 11.552 16.4791 11.1317 16.4791 10.6132V9.86224C16.4791 9.34379 16.8956 8.9235 17.4093 8.9235H20.107C20.6207 8.9235 21.0372 8.5032 21.0372 7.9847V7.2337Z" fill="white"/>
<g clip-path="url(#clip0_7176_10188)">
<path fill-rule="evenodd" clip-rule="evenodd" d="M131.755 21.5122C131.311 21.5122 130.951 21.8695 130.951 22.3102V22.9486C130.951 23.3893 131.311 23.7466 131.755 23.7466H140.113C140.557 23.7466 140.917 23.3893 140.917 22.9486V22.3102C140.917 21.8695 140.557 21.5122 140.113 21.5122H137.662C137.218 21.5122 136.858 21.155 136.858 20.7142V15.4874C136.858 15.0467 137.218 14.6895 137.662 14.6895H139.631C140.075 14.6895 140.435 14.3322 140.435 13.8915V13.2531C140.435 12.8123 140.075 12.4551 139.631 12.4551H137.622C137.178 12.4551 136.818 12.8123 136.818 13.2531V13.8915C136.818 14.3322 136.458 14.6895 136.014 14.6895H135.412C134.968 14.6895 134.608 15.0467 134.608 15.4874V20.7142C134.608 21.155 134.248 21.5122 133.804 21.5122H131.755Z" fill="white"/>
<path fill-rule="evenodd" clip-rule="evenodd" d="M112.547 8.26953C112.991 8.26953 113.351 8.6268 113.351 9.06752V9.34681C113.351 9.78753 113.711 10.1448 114.155 10.1448H114.717C115.161 10.1448 115.521 10.5021 115.521 10.9428V20.6782C115.521 21.1189 115.881 21.4762 116.325 21.4762H118.374C118.818 21.4762 119.178 21.8335 119.178 22.2742V22.9126C119.178 23.3533 118.818 23.7106 118.374 23.7106H110.016C109.572 23.7106 109.212 23.3533 109.212 22.9126V22.2742C109.212 21.8335 109.572 21.4762 110.016 21.4762H112.467C112.911 21.4762 113.27 21.1189 113.27 20.6782V11.3019C113.27 10.8612 112.911 10.5039 112.467 10.5039H110.538C110.094 10.5039 109.734 10.1466 109.734 9.70591V9.06752C109.734 8.6268 110.094 8.26953 110.538 8.26953H112.547Z" fill="white"/>
<path fill-rule="evenodd" clip-rule="evenodd" d="M149.462 12.4551C149.906 12.4551 150.266 12.8123 150.266 13.2531V13.8915C150.266 14.3322 150.625 14.6895 151.069 14.6895H151.592C152.036 14.6895 152.395 15.0467 152.395 15.4874V18.4001C152.395 18.8408 152.036 19.1981 151.592 19.1981H150.145H146.046C145.602 19.1981 145.242 19.5553 145.242 19.9961V20.7142C145.242 21.155 145.602 21.5122 146.046 21.5122H151.592C152.036 21.5122 152.395 21.8695 152.395 22.3102V22.9486C152.395 23.3893 152.036 23.7466 151.592 23.7466H145.885C145.442 23.7466 145.082 23.3893 145.082 22.9486V22.3102C145.082 21.8695 144.722 21.5122 144.278 21.5122H143.796C143.352 21.5122 142.992 21.155 142.992 20.7142V14.6895V13.2531C142.992 12.8123 143.352 12.4551 143.796 12.4551H145.242H149.462ZM150.145 16.1657C150.145 16.6064 149.785 16.9637 149.341 16.9637H146.046C145.602 16.9637 145.242 16.6064 145.242 16.1657V15.4874C145.242 15.0467 145.602 14.6895 146.046 14.6895H149.341C149.785 14.6895 150.145 15.0467 150.145 15.4874V16.1657Z" fill="white"/>
<path d="M121.743 21.5752C122.184 21.5752 122.541 21.9352 122.541 22.3793V22.9422C122.541 23.3864 122.898 23.7464 123.338 23.7464H125.135C125.576 23.7464 125.933 23.3864 125.933 22.9422V22.2989C125.933 21.8548 125.576 21.4948 125.135 21.4948H123.338C122.898 21.4948 122.541 21.1348 122.541 20.6907V16.3535H120.308V20.7711C120.308 21.2152 120.665 21.5752 121.105 21.5752H121.743Z" fill="white"/>
<path d="M122.541 18.7898H120.308V15.4304C120.308 14.9862 120.665 14.6262 121.105 14.6262H121.743C122.184 14.6262 122.541 14.2662 122.541 13.8221V13.2592C122.541 12.8151 122.898 12.4551 123.338 12.4551H125.135C125.576 12.4551 125.933 12.8151 125.933 13.2592V13.9025C125.933 14.3466 125.576 14.7066 125.135 14.7066H123.338C122.898 14.7066 122.541 15.0667 122.541 15.5108V18.7898Z" fill="white"/>
<path d="M128.074 21.5752C127.634 21.5752 127.277 21.9352 127.277 22.3793V22.9422C127.277 23.3864 126.92 23.7464 126.479 23.7464H124.682C124.242 23.7464 123.885 23.3864 123.885 22.9422V22.2989C123.885 21.8548 124.242 21.4948 124.682 21.4948H126.479C126.92 21.4948 127.277 21.1348 127.277 20.6907V16.3535H129.51V20.7711C129.51 21.2152 129.153 21.5752 128.712 21.5752H128.074Z" fill="white"/>
<path d="M127.277 18.7898H129.51V15.4304C129.51 14.9862 129.153 14.6262 128.712 14.6262H128.074C127.634 14.6262 127.277 14.2662 127.277 13.8221V13.2592C127.277 12.8151 126.92 12.4551 126.479 12.4551H124.682C124.242 12.4551 123.885 12.8151 123.885 13.2592V13.9025C123.885 14.3466 124.242 14.7066 124.682 14.7066H126.479C126.92 14.7066 127.277 15.0667 127.277 15.5108V18.7898Z" fill="white"/>
<path fill-rule="evenodd" clip-rule="evenodd" d="M49.5468 8.02734C49.9907 8.02734 50.3505 8.38461 50.3505 8.82533V9.46372C50.3505 9.90444 49.9907 10.2617 49.5468 10.2617H47.2161C46.7722 10.2617 46.4124 10.619 46.4124 11.0597V11.6981C46.4124 12.1388 46.7722 12.4961 47.2161 12.4961H49.6674C50.1112 12.4961 50.471 12.8534 50.471 13.2941V13.9325C50.471 14.3732 50.1112 14.7304 49.6674 14.7304H47.2161C46.7722 14.7304 46.4124 15.0877 46.4124 15.5284V20.7552C46.4124 21.196 46.0526 21.5532 45.6087 21.5532H44.9658C44.5219 21.5532 44.1621 21.9105 44.1621 22.3512V22.83C44.1621 23.2707 43.8023 23.628 43.3584 23.628H40.9072C40.4633 23.628 40.1035 23.2707 40.1035 22.83V22.1916C40.1035 21.7509 40.4633 21.3936 40.9072 21.3936H43.3584C43.8023 21.3936 44.1621 21.0364 44.1621 20.5956V15.5284C44.1621 15.0877 43.8023 14.7304 43.3584 14.7304H40.9072C40.4633 14.7304 40.1035 14.3732 40.1035 13.9325V13.2941C40.1035 12.8534 40.4633 12.4961 40.9072 12.4961H43.3584C43.8023 12.4961 44.1621 12.1388 44.1621 11.6981V11.0198C44.1621 10.5791 44.5219 10.2218 44.9658 10.2218H45.4882C45.9321 10.2218 46.2919 9.86454 46.2919 9.42382V8.82533C46.2919 8.38461 46.6517 8.02734 47.0956 8.02734L49.5468 8.02734ZM55.8155 9.54352C55.8155 9.98424 56.1754 10.3415 56.6192 10.3415H57.2622C57.706 10.3415 58.0659 9.98424 58.0659 9.54352V8.86523C58.0659 8.42451 57.706 8.06724 57.2622 8.06724H56.6192C56.1754 8.06724 55.8155 8.42451 55.8155 8.86523V9.54352ZM66.2036 8.18694C66.6476 8.18694 67.0074 8.54421 67.0074 8.98493V9.26422C67.0074 9.70494 67.3671 10.0622 67.8111 10.0622H68.3736C68.8176 10.0622 69.1774 10.4195 69.1774 10.8602V20.5956C69.1774 21.0364 69.5371 21.3936 69.9809 21.3936H72.0303C72.4742 21.3936 72.834 21.7509 72.834 22.1916V22.83C72.834 23.2707 72.4742 23.628 72.0303 23.628H63.6721C63.2282 23.628 62.8684 23.2707 62.8684 22.83V22.1916C62.8684 21.7509 63.2282 21.3936 63.6721 21.3936H66.1234C66.5671 21.3936 66.9269 21.0364 66.9269 20.5956V11.2193C66.9269 10.7786 66.5671 10.4213 66.1234 10.4213H64.1944C63.7507 10.4213 63.3907 10.064 63.3907 9.62332V8.98493C63.3907 8.54421 63.7507 8.18694 64.1944 8.18694H66.2036ZM55.0922 12.3365C55.5361 12.3365 55.8959 12.6937 55.8959 13.1345V13.7729C55.8959 14.2136 56.2557 14.5708 56.6996 14.5708H57.2622C57.706 14.5708 58.0659 14.9281 58.0659 15.3688V20.5956C58.0659 21.0364 58.4257 21.3936 58.8695 21.3936H60.919C61.3628 21.3936 61.7226 21.7509 61.7226 22.1916V22.83C61.7226 23.2707 61.3628 23.628 60.919 23.628H52.5606C52.1167 23.628 51.7569 23.2707 51.7569 22.83V22.1916C51.7569 21.7509 52.1167 21.3936 52.5606 21.3936H55.0119C55.4557 21.3936 55.8155 21.0364 55.8155 20.5956V15.3688C55.8155 14.9281 55.4557 14.5708 55.0119 14.5708H53.083C52.6391 14.5708 52.2793 14.2136 52.2793 13.7729V13.1345C52.2793 12.6937 52.6391 12.3365 53.083 12.3365H55.0922Z" fill="white"/>
<path d="M89.6434 13.2531C89.6434 12.8123 89.2837 12.4551 88.8397 12.4551H85.9239C85.4801 12.4551 85.1201 12.8123 85.1201 13.2531V13.8915C85.1201 14.3322 85.4801 14.6895 85.9239 14.6895L88.7595 14.6894C89.2032 14.6894 89.563 15.0467 89.563 15.4874V19.9683H91.8134V15.4874C91.8134 15.0467 91.4537 14.6894 91.0097 14.6894H90.4472C90.0032 14.6894 89.6434 14.3322 89.6434 13.8915V13.2531Z" fill="white"/>
<path d="M91.8466 13.2531C91.8466 12.8123 92.2063 12.4551 92.6503 12.4551H95.5651C96.0088 12.4551 96.3686 12.8123 96.3686 13.2531V13.8915C96.3686 14.3322 96.0088 14.6894 95.5651 14.6894H92.7307C92.2868 14.6894 91.927 15.0467 91.927 15.4874V19.9683H89.6768V15.4874C89.6768 15.0467 90.0366 14.6894 90.4803 14.6894H91.043C91.4868 14.6894 91.8466 14.3322 91.8466 13.8915V13.2531Z" fill="white"/>
<path d="M89.6434 22.9126C89.6434 23.3533 89.2837 23.7106 88.8397 23.7106H85.9239C85.4801 23.7106 85.1201 23.3533 85.1201 22.9126V22.2742C85.1201 21.8335 85.4801 21.4762 85.9239 21.4762L88.7595 21.4762C89.2032 21.4762 89.563 21.1189 89.563 20.6782V16.1973H91.8134V20.6782C91.8134 21.1189 91.4537 21.4762 91.0097 21.4762H90.4472C90.0032 21.4762 89.6434 21.8335 89.6434 22.2742V22.9126Z" fill="white"/>
<path d="M91.8466 22.9126C91.8466 23.3533 92.2063 23.7106 92.6503 23.7106H95.5651C96.0088 23.7106 96.3686 23.3533 96.3686 22.9126V22.2742C96.3686 21.8335 96.0088 21.4762 95.5651 21.4762H92.7307C92.2868 21.4762 91.927 21.1189 91.927 20.6782V16.1973H89.6768V20.6782C89.6768 21.1189 90.0366 21.4762 90.4803 21.4762H91.043C91.4868 21.4762 91.8466 21.8335 91.8466 22.2742V22.9126Z" fill="white"/>
<path d="M101.949 23.3262V24.7856C101.949 25.2263 102.309 25.5836 102.753 25.5836H105.204C105.648 25.5836 106.008 25.9408 106.008 26.3816V27.02C106.008 27.4607 105.648 27.8179 105.204 27.8179H96.8457C96.4018 27.8179 96.042 27.4607 96.042 27.02V26.3816C96.042 25.9408 96.4018 25.5836 96.8457 25.5836H98.8951C99.3389 25.5836 99.6987 25.2263 99.6987 24.7856V23.3262H101.949Z" fill="white"/>
<path fill-rule="evenodd" clip-rule="evenodd" d="M108.124 13.2027V18.4012H108.12V19.1915C108.12 19.6328 107.765 19.9906 107.327 19.9906H106.693C106.255 19.9906 105.9 20.3484 105.9 20.7897V21.3491C105.9 21.7905 105.546 22.1483 105.108 22.1483H102.704C102.32 22.1671 102.007 22.4535 101.95 22.8236V23.8112H99.6992V22.361H99.7001V15.3342C99.7186 14.9098 100.071 14.5714 100.503 14.5714H101.025C101.469 14.5714 101.829 14.2142 101.829 13.7735V13.175C101.829 12.7342 102.189 12.377 102.633 12.377L107.361 12.377C107.783 12.377 108.124 12.7466 108.124 13.2027ZM104.791 14.6146V14.6195H105.201C105.597 14.664 105.905 15.0026 105.905 15.4137V16.5226H105.9V19.1115C105.9 19.5529 105.546 19.9107 105.108 19.9107H102.683C102.309 19.8829 102.007 19.6014 101.95 19.2391V16.0725C101.95 16.0643 101.95 16.056 101.95 16.0477V15.4093C101.95 14.9686 102.309 14.6113 102.753 14.6113H103.229C103.252 14.6135 103.276 14.6146 103.3 14.6146H104.791Z" fill="white"/>
<path fill-rule="evenodd" clip-rule="evenodd" d="M80.7452 12.4199C81.1889 12.4199 81.5487 12.7772 81.5487 13.2179V13.8563C81.5487 14.297 81.9087 14.6543 82.3525 14.6543H82.875C83.3187 14.6543 83.6785 15.0116 83.6785 15.4523V18.3649C83.6785 18.8057 83.3187 19.1629 82.875 19.1629H81.4283H77.3296C76.8856 19.1629 76.5258 19.5202 76.5258 19.9609V20.6791C76.5258 21.1198 76.8856 21.4771 77.3296 21.4771H82.875C83.3187 21.4771 83.6785 21.8344 83.6785 22.2751V22.9135C83.6785 23.3542 83.3187 23.7114 82.875 23.7114H77.1687C76.725 23.7114 76.365 23.3542 76.365 22.9135V22.2751C76.365 21.8344 76.0052 21.4771 75.5614 21.4771H75.0791C74.6354 21.4771 74.2754 21.1198 74.2754 20.6791V14.6543V13.2179C74.2754 12.7772 74.6354 12.4199 75.0791 12.4199H76.5258H80.7452ZM81.4283 16.1306C81.4283 16.5713 81.0685 16.9285 80.6246 16.9285H77.3296C76.8856 16.9285 76.5258 16.5713 76.5258 16.1306V15.4523C76.5258 15.0116 76.8856 14.6543 77.3296 14.6543H80.6246C81.0685 14.6543 81.4283 15.0116 81.4283 15.4523V16.1306Z" fill="white"/>
</g>
<defs>
<clipPath id="clip0_7176_10188">
<rect width="112.5" height="20" fill="white" transform="translate(40 8)"/>
</clipPath>
</defs>
</svg>
